<svg height="500px" width="500px" viewBox="0 0 7 7" version="1.1" xmlns="http://www.w3.org/2000/svg">
    <rect x="0" y="0" width="7" height="7" fill="black"></rect>
    <rect x="1" y="1" width="1" height="1" fill="white" stroke="white" stroke-width="0.01"></rect>
    <rect x="3" y="1" width="1" height="1" fill="white" stroke="white" stroke-width="0.01"></rect>
    <rect x="4" y="1" width="1" height="1" fill="white" stroke="white" stroke-width="0.01"></rect>
    <rect x="5" y="1" width="1" height="1" fill="white" stroke="white" stroke-width="0.01"></rect>
    <rect x="1" y="2" width="1" height="1" fill="white" stroke="white" stroke-width="0.01"></rect>
    <rect x="2" y="3" width="1" height="1" fill="white" stroke="white" stroke-width="0.01"></rect>
    <rect x="3" y="3" width="1" height="1" fill="white" stroke="white" stroke-width="0.01"></rect>
    <rect x="4" y="3" width="1" height="1" fill="white" stroke="white" stroke-width="0.01"></rect>
    <rect x="2" y="4" width="1" height="1" fill="white" stroke="white" stroke-width="0.01"></rect>
    <rect x="3" y="4" width="1" height="1" fill="white" stroke="white" stroke-width="0.01"></rect>
    <rect x="4" y="4" width="1" height="1" fill="white" stroke="white" stroke-width="0.01"></rect>
    <rect x="2" y="5" width="1" height="1" fill="white" stroke="white" stroke-width="0.01"></rect>
    <rect x="3" y="5" width="1" height="1" fill="white" stroke="white" stroke-width="0.01"></rect>
    <rect x="4" y="5" width="1" height="1" fill="white" stroke="white" stroke-width="0.01"></rect>
</svg>